#N canvas 0 22 450 300 8;
#X msg 258 239 goo bar;
#X msg 417 222;
#X obj 269 301 print hello;
#X obj 497 251 + 2;
#X obj 458 316 print;
#X obj 569 147 loadbang;
#X obj 271 410 -;
#X obj 431 433 *;
#X obj 545 369 r \$1;
#X text 626 444 hello this is a comment;
#X obj 558 475 s \$1;
#X connect 0 0 2 0;
#X connect 1 0 2 0;
#X connect 3 0 4 0;
